<?xml version="1.0" encoding="utf-8"?>
<!-- Generator: Adobe Illustrator 23.1.1, SVG Export Plug-In . SVG Version: 6.00 Build 0)  -->
<svg version="1.1" id="Layer_1" xmlns="http://www.w3.org/2000/svg" xmlns:xlink="http://www.w3.org/1999/xlink" x="0px" y="0px"
	 viewBox="0 0 1024 1024" style="enable-background:new 0 0 1024 1024;" xml:space="preserve">
<style type="text/css">
	.st0{opacity:0.15;}
	.st1{fill:#999999;}
	.st2{fill:#E6E6E6;}
	.st3{fill:#877F79;}
	.st4{fill:url(#SVGID_1_);}
</style>
<g>
	<g class="st0">
		<path class="st1" d="M27.3,977.2c5.5,0,9.9,4.4,9.9,9.9c0,5.5-4.4,9.9-9.9,9.9c-5.5,0-9.9-4.4-9.9-9.9
			C17.3,981.6,21.8,977.2,27.3,977.2z"/>
		<path class="st1" d="M27.3,914.5c5.5,0,9.9,4.4,9.9,9.9c0,5.5-4.4,9.9-9.9,9.9c-5.5,0-9.9-4.4-9.9-9.9
			C17.3,919,21.8,914.5,27.3,914.5z"/>
		<path class="st1" d="M27.3,851.8c5.5,0,9.9,4.4,9.9,9.9s-4.4,9.9-9.9,9.9c-5.5,0-9.9-4.4-9.9-9.9S21.8,851.8,27.3,851.8z"/>
		<path class="st1" d="M27.3,789.1c5.5,0,9.9,4.4,9.9,9.9c0,5.5-4.4,9.9-9.9,9.9c-5.5,0-9.9-4.4-9.9-9.9
			C17.3,793.6,21.8,789.1,27.3,789.1z"/>
		<path class="st1" d="M27.3,726.5c5.5,0,9.9,4.4,9.9,9.9s-4.4,9.9-9.9,9.9c-5.5,0-9.9-4.4-9.9-9.9S21.8,726.5,27.3,726.5z"/>
		<path class="st1" d="M27.3,663.8c5.5,0,9.9,4.4,9.9,9.9c0,5.5-4.4,9.9-9.9,9.9c-5.5,0-9.9-4.4-9.9-9.9
			C17.3,668.2,21.8,663.8,27.3,663.8z"/>
		<path class="st1" d="M27.3,601.1c5.5,0,9.9,4.4,9.9,9.9c0,5.5-4.4,9.9-9.9,9.9c-5.5,0-9.9-4.4-9.9-9.9
			C17.3,605.5,21.8,601.1,27.3,601.1z"/>
		<path class="st1" d="M27.3,538.4c5.5,0,9.9,4.4,9.9,9.9c0,5.5-4.4,9.9-9.9,9.9c-5.5,0-9.9-4.4-9.9-9.9
			C17.3,542.9,21.8,538.4,27.3,538.4z"/>
		<path class="st1" d="M27.3,475.7c5.5,0,9.9,4.4,9.9,9.9c0,5.5-4.4,9.9-9.9,9.9c-5.5,0-9.9-4.4-9.9-9.9
			C17.3,480.2,21.8,475.7,27.3,475.7z"/>
		<path class="st1" d="M27.3,413.1c5.5,0,9.9,4.4,9.9,9.9c0,5.5-4.4,9.9-9.9,9.9c-5.5,0-9.9-4.4-9.9-9.9
			C17.3,417.5,21.8,413.1,27.3,413.1z"/>
		<path class="st1" d="M27.3,350.4c5.5,0,9.9,4.4,9.9,9.9c0,5.5-4.4,9.9-9.9,9.9c-5.5,0-9.9-4.4-9.9-9.9
			C17.3,354.8,21.8,350.4,27.3,350.4z"/>
		<path class="st1" d="M27.3,287.7c5.5,0,9.9,4.4,9.9,9.9c0,5.5-4.4,9.9-9.9,9.9c-5.5,0-9.9-4.4-9.9-9.9
			C17.3,292.1,21.8,287.7,27.3,287.7z"/>
		<path class="st1" d="M27.3,225c5.5,0,9.9,4.4,9.9,9.9c0,5.5-4.4,9.9-9.9,9.9c-5.5,0-9.9-4.4-9.9-9.9C17.3,229.4,21.8,225,27.3,225
			z"/>
		<path class="st1" d="M27.3,162.3c5.5,0,9.9,4.4,9.9,9.9c0,5.5-4.4,9.9-9.9,9.9c-5.5,0-9.9-4.4-9.9-9.9
			C17.3,166.8,21.8,162.3,27.3,162.3z"/>
		<path class="st1" d="M27.3,99.6c5.5,0,9.9,4.4,9.9,9.9c0,5.5-4.4,9.9-9.9,9.9c-5.5,0-9.9-4.4-9.9-9.9
			C17.3,104.1,21.8,99.6,27.3,99.6z"/>
		<path class="st1" d="M27.3,37c5.5,0,9.9,4.4,9.9,9.9c0,5.5-4.4,9.9-9.9,9.9c-5.5,0-9.9-4.4-9.9-9.9C17.3,41.4,21.8,37,27.3,37z"/>
		<path class="st1" d="M73.3,977.2c5.5,0,9.9,4.4,9.9,9.9c0,5.5-4.4,9.9-9.9,9.9c-5.5,0-9.9-4.4-9.9-9.9
			C63.4,981.6,67.8,977.2,73.3,977.2z"/>
		<path class="st1" d="M73.3,914.5c5.5,0,9.9,4.4,9.9,9.9c0,5.5-4.4,9.9-9.9,9.9c-5.5,0-9.9-4.4-9.9-9.9
			C63.4,919,67.8,914.5,73.3,914.5z"/>
		<path class="st1" d="M73.3,851.8c5.5,0,9.9,4.4,9.9,9.9s-4.4,9.9-9.9,9.9c-5.5,0-9.9-4.4-9.9-9.9S67.8,851.8,73.3,851.8z"/>
		<path class="st1" d="M73.3,789.1c5.5,0,9.9,4.4,9.9,9.9c0,5.5-4.4,9.9-9.9,9.9c-5.5,0-9.9-4.4-9.9-9.9
			C63.4,793.6,67.8,789.1,73.3,789.1z"/>
		<path class="st1" d="M73.3,726.5c5.5,0,9.9,4.4,9.9,9.9s-4.4,9.9-9.9,9.9c-5.5,0-9.9-4.4-9.9-9.9S67.8,726.5,73.3,726.5z"/>
		<path class="st1" d="M73.3,663.8c5.5,0,9.9,4.4,9.9,9.9c0,5.5-4.4,9.9-9.9,9.9c-5.5,0-9.9-4.4-9.9-9.9
			C63.4,668.2,67.8,663.8,73.3,663.8z"/>
		<path class="st1" d="M73.3,601.1c5.5,0,9.9,4.4,9.9,9.9c0,5.5-4.4,9.9-9.9,9.9c-5.5,0-9.9-4.4-9.9-9.9
			C63.4,605.5,67.8,601.1,73.3,601.1z"/>
		<path class="st1" d="M73.3,538.4c5.5,0,9.9,4.4,9.9,9.9c0,5.5-4.4,9.9-9.9,9.9c-5.5,0-9.9-4.4-9.9-9.9
			C63.4,542.9,67.8,538.4,73.3,538.4z"/>
		<path class="st1" d="M73.3,475.7c5.5,0,9.9,4.4,9.9,9.9c0,5.5-4.4,9.9-9.9,9.9c-5.5,0-9.9-4.4-9.9-9.9
			C63.4,480.2,67.8,475.7,73.3,475.7z"/>
		<path class="st1" d="M73.3,413.1c5.5,0,9.9,4.4,9.9,9.9c0,5.5-4.4,9.9-9.9,9.9c-5.5,0-9.9-4.4-9.9-9.9
			C63.4,417.5,67.8,413.1,73.3,413.1z"/>
		<path class="st1" d="M73.3,350.4c5.5,0,9.9,4.4,9.9,9.9c0,5.5-4.4,9.9-9.9,9.9c-5.5,0-9.9-4.4-9.9-9.9
			C63.4,354.8,67.8,350.4,73.3,350.4z"/>
		<path class="st1" d="M73.3,287.7c5.5,0,9.9,4.4,9.9,9.9c0,5.5-4.4,9.9-9.9,9.9c-5.5,0-9.9-4.4-9.9-9.9
			C63.4,292.1,67.8,287.7,73.3,287.7z"/>
		<path class="st1" d="M73.3,225c5.5,0,9.9,4.4,9.9,9.9c0,5.5-4.4,9.9-9.9,9.9c-5.5,0-9.9-4.4-9.9-9.9C63.4,229.4,67.8,225,73.3,225
			z"/>
		<path class="st1" d="M73.3,162.3c5.5,0,9.9,4.4,9.9,9.9c0,5.5-4.4,9.9-9.9,9.9c-5.5,0-9.9-4.4-9.9-9.9
			C63.4,166.8,67.8,162.3,73.3,162.3z"/>
		<path class="st1" d="M73.3,99.6c5.5,0,9.9,4.4,9.9,9.9c0,5.5-4.4,9.9-9.9,9.9c-5.5,0-9.9-4.4-9.9-9.9
			C63.4,104.1,67.8,99.6,73.3,99.6z"/>
		<path class="st1" d="M73.3,37c5.5,0,9.9,4.4,9.9,9.9c0,5.5-4.4,9.9-9.9,9.9c-5.5,0-9.9-4.4-9.9-9.9C63.4,41.4,67.8,37,73.3,37z"/>
		<path class="st1" d="M119.3,977.2c5.5,0,9.9,4.4,9.9,9.9c0,5.5-4.4,9.9-9.9,9.9s-9.9-4.4-9.9-9.9
			C109.4,981.6,113.8,977.2,119.3,977.2z"/>
		<path class="st1" d="M119.3,914.5c5.5,0,9.9,4.4,9.9,9.9c0,5.5-4.4,9.9-9.9,9.9s-9.9-4.4-9.9-9.9
			C109.4,919,113.8,914.5,119.3,914.5z"/>
		<path class="st1" d="M119.3,851.8c5.5,0,9.9,4.4,9.9,9.9s-4.4,9.9-9.9,9.9s-9.9-4.4-9.9-9.9S113.8,851.8,119.3,851.8z"/>
		<path class="st1" d="M119.3,789.1c5.5,0,9.9,4.4,9.9,9.9c0,5.5-4.4,9.9-9.9,9.9s-9.9-4.4-9.9-9.9
			C109.4,793.6,113.8,789.1,119.3,789.1z"/>
		<path class="st1" d="M119.3,726.5c5.5,0,9.9,4.4,9.9,9.9s-4.4,9.9-9.9,9.9s-9.9-4.4-9.9-9.9S113.8,726.5,119.3,726.5z"/>
		<path class="st1" d="M119.3,663.8c5.5,0,9.9,4.4,9.9,9.9c0,5.5-4.4,9.9-9.9,9.9s-9.9-4.4-9.9-9.9
			C109.4,668.2,113.8,663.8,119.3,663.8z"/>
		<path class="st1" d="M119.3,601.1c5.5,0,9.9,4.4,9.9,9.9c0,5.5-4.4,9.9-9.9,9.9s-9.9-4.4-9.9-9.9
			C109.4,605.5,113.8,601.1,119.3,601.1z"/>
		<path class="st1" d="M119.3,538.4c5.5,0,9.9,4.4,9.9,9.9c0,5.5-4.4,9.9-9.9,9.9s-9.9-4.4-9.9-9.9
			C109.4,542.9,113.8,538.4,119.3,538.4z"/>
		<path class="st1" d="M119.3,475.7c5.5,0,9.9,4.4,9.9,9.9c0,5.5-4.4,9.9-9.9,9.9s-9.9-4.4-9.9-9.9
			C109.4,480.2,113.8,475.7,119.3,475.7z"/>
		<path class="st1" d="M119.3,413.1c5.5,0,9.9,4.4,9.9,9.9c0,5.5-4.4,9.9-9.9,9.9s-9.9-4.4-9.9-9.9
			C109.4,417.5,113.8,413.1,119.3,413.1z"/>
		<path class="st1" d="M119.3,350.4c5.5,0,9.9,4.4,9.9,9.9c0,5.5-4.4,9.9-9.9,9.9s-9.9-4.4-9.9-9.9
			C109.4,354.8,113.8,350.4,119.3,350.4z"/>
		<path class="st1" d="M119.3,287.7c5.5,0,9.9,4.4,9.9,9.9c0,5.5-4.4,9.9-9.9,9.9s-9.9-4.4-9.9-9.9
			C109.4,292.1,113.8,287.7,119.3,287.7z"/>
		<path class="st1" d="M119.3,225c5.5,0,9.9,4.4,9.9,9.9c0,5.5-4.4,9.9-9.9,9.9s-9.9-4.4-9.9-9.9C109.4,229.4,113.8,225,119.3,225z"
			/>
		<path class="st1" d="M119.3,162.3c5.5,0,9.9,4.4,9.9,9.9c0,5.5-4.4,9.9-9.9,9.9s-9.9-4.4-9.9-9.9
			C109.4,166.8,113.8,162.3,119.3,162.3z"/>
		<path class="st1" d="M119.3,99.6c5.5,0,9.9,4.4,9.9,9.9c0,5.5-4.4,9.9-9.9,9.9s-9.9-4.4-9.9-9.9
			C109.4,104.1,113.8,99.6,119.3,99.6z"/>
		<path class="st1" d="M119.3,37c5.5,0,9.9,4.4,9.9,9.9c0,5.5-4.4,9.9-9.9,9.9s-9.9-4.4-9.9-9.9C109.4,41.4,113.8,37,119.3,37z"/>
		<circle class="st1" cx="165.3" cy="987.1" r="9.9"/>
		<path class="st1" d="M165.3,914.5c5.5,0,9.9,4.4,9.9,9.9c0,5.5-4.4,9.9-9.9,9.9c-5.5,0-9.9-4.4-9.9-9.9
			C155.4,919,159.9,914.5,165.3,914.5z"/>
		<path class="st1" d="M165.3,851.8c5.5,0,9.9,4.4,9.9,9.9s-4.4,9.9-9.9,9.9c-5.5,0-9.9-4.4-9.9-9.9S159.9,851.8,165.3,851.8z"/>
		<path class="st1" d="M165.3,789.1c5.5,0,9.9,4.4,9.9,9.9c0,5.5-4.4,9.9-9.9,9.9c-5.5,0-9.9-4.4-9.9-9.9
			C155.4,793.6,159.9,789.1,165.3,789.1z"/>
		<path class="st1" d="M165.3,726.5c5.5,0,9.9,4.4,9.9,9.9s-4.4,9.9-9.9,9.9c-5.5,0-9.9-4.4-9.9-9.9S159.9,726.5,165.3,726.5z"/>
		<path class="st1" d="M165.3,663.8c5.5,0,9.9,4.4,9.9,9.9c0,5.5-4.4,9.9-9.9,9.9c-5.5,0-9.9-4.4-9.9-9.9
			C155.4,668.2,159.9,663.8,165.3,663.8z"/>
		<circle class="st1" cx="165.3" cy="611" r="9.9"/>
		<circle class="st1" cx="165.3" cy="548.3" r="9.9"/>
		<path class="st1" d="M165.3,475.7c5.5,0,9.9,4.4,9.9,9.9c0,5.5-4.4,9.9-9.9,9.9c-5.5,0-9.9-4.4-9.9-9.9
			C155.4,480.2,159.9,475.7,165.3,475.7z"/>
		<path class="st1" d="M165.3,413.1c5.5,0,9.9,4.4,9.9,9.9c0,5.5-4.4,9.9-9.9,9.9c-5.5,0-9.9-4.4-9.9-9.9
			C155.4,417.5,159.9,413.1,165.3,413.1z"/>
		<path class="st1" d="M165.3,350.4c5.5,0,9.9,4.4,9.9,9.9c0,5.5-4.4,9.9-9.9,9.9c-5.5,0-9.9-4.4-9.9-9.9
			C155.4,354.8,159.9,350.4,165.3,350.4z"/>
		<path class="st1" d="M165.3,287.7c5.5,0,9.9,4.4,9.9,9.9c0,5.5-4.4,9.9-9.9,9.9c-5.5,0-9.9-4.4-9.9-9.9
			C155.4,292.1,159.9,287.7,165.3,287.7z"/>
		<circle class="st1" cx="165.3" cy="234.9" r="9.9"/>
		<path class="st1" d="M165.3,162.3c5.5,0,9.9,4.4,9.9,9.9c0,5.5-4.4,9.9-9.9,9.9c-5.5,0-9.9-4.4-9.9-9.9
			C155.4,166.8,159.9,162.3,165.3,162.3z"/>
		<circle class="st1" cx="165.3" cy="109.6" r="9.9"/>
		<path class="st1" d="M165.3,37c5.5,0,9.9,4.4,9.9,9.9c0,5.5-4.4,9.9-9.9,9.9c-5.5,0-9.9-4.4-9.9-9.9C155.4,41.4,159.9,37,165.3,37
			z"/>
		<circle class="st1" cx="211.4" cy="987.1" r="9.9"/>
		<path class="st1" d="M211.4,914.5c5.5,0,9.9,4.4,9.9,9.9c0,5.5-4.4,9.9-9.9,9.9s-9.9-4.4-9.9-9.9
			C201.5,919,205.9,914.5,211.4,914.5z"/>
		<path class="st1" d="M211.4,851.8c5.5,0,9.9,4.4,9.9,9.9s-4.4,9.9-9.9,9.9s-9.9-4.4-9.9-9.9S205.9,851.8,211.4,851.8z"/>
		<path class="st1" d="M211.4,789.1c5.5,0,9.9,4.4,9.9,9.9c0,5.5-4.4,9.9-9.9,9.9s-9.9-4.4-9.9-9.9
			C201.5,793.6,205.9,789.1,211.4,789.1z"/>
		<path class="st1" d="M211.4,726.5c5.5,0,9.9,4.4,9.9,9.9s-4.4,9.9-9.9,9.9s-9.9-4.4-9.9-9.9S205.9,726.5,211.4,726.5z"/>
		<path class="st1" d="M211.4,663.8c5.5,0,9.9,4.4,9.9,9.9c0,5.5-4.4,9.9-9.9,9.9s-9.9-4.4-9.9-9.9
			C201.5,668.2,205.9,663.8,211.4,663.8z"/>
		<circle class="st1" cx="211.4" cy="611" r="9.9"/>
		<circle class="st1" cx="211.4" cy="548.3" r="9.9"/>
		<path class="st1" d="M211.4,475.7c5.5,0,9.9,4.4,9.9,9.9c0,5.5-4.4,9.9-9.9,9.9s-9.9-4.4-9.9-9.9
			C201.5,480.2,205.9,475.7,211.4,475.7z"/>
		<path class="st1" d="M211.4,413.1c5.5,0,9.9,4.4,9.9,9.9c0,5.5-4.4,9.9-9.9,9.9s-9.9-4.4-9.9-9.9
			C201.5,417.5,205.9,413.1,211.4,413.1z"/>
		<path class="st1" d="M211.4,350.4c5.5,0,9.9,4.4,9.9,9.9c0,5.5-4.4,9.9-9.9,9.9s-9.9-4.4-9.9-9.9
			C201.5,354.8,205.9,350.4,211.4,350.4z"/>
		<path class="st1" d="M211.4,287.7c5.5,0,9.9,4.4,9.9,9.9c0,5.5-4.4,9.9-9.9,9.9s-9.9-4.4-9.9-9.9
			C201.5,292.1,205.9,287.7,211.4,287.7z"/>
		<circle class="st1" cx="211.4" cy="234.9" r="9.9"/>
		<path class="st1" d="M211.4,162.3c5.5,0,9.9,4.4,9.9,9.9c0,5.5-4.4,9.9-9.9,9.9s-9.9-4.4-9.9-9.9
			C201.5,166.8,205.9,162.3,211.4,162.3z"/>
		<circle class="st1" cx="211.4" cy="109.6" r="9.9"/>
		<path class="st1" d="M211.4,37c5.5,0,9.9,4.4,9.9,9.9c0,5.5-4.4,9.9-9.9,9.9s-9.9-4.4-9.9-9.9C201.5,41.4,205.9,37,211.4,37z"/>
		<circle class="st1" cx="257.4" cy="987.1" r="9.9"/>
		<path class="st1" d="M257.4,914.5c5.5,0,9.9,4.4,9.9,9.9c0,5.5-4.4,9.9-9.9,9.9c-5.5,0-9.9-4.4-9.9-9.9
			C247.5,919,251.9,914.5,257.4,914.5z"/>
		<path class="st1" d="M257.4,851.8c5.5,0,9.9,4.4,9.9,9.9s-4.4,9.9-9.9,9.9c-5.5,0-9.9-4.4-9.9-9.9S251.9,851.8,257.4,851.8z"/>
		<path class="st1" d="M257.4,789.1c5.5,0,9.9,4.4,9.9,9.9c0,5.5-4.4,9.9-9.9,9.9c-5.5,0-9.9-4.4-9.9-9.9
			C247.5,793.6,251.9,789.1,257.4,789.1z"/>
		<path class="st1" d="M257.4,726.5c5.5,0,9.9,4.4,9.9,9.9s-4.4,9.9-9.9,9.9c-5.5,0-9.9-4.4-9.9-9.9S251.9,726.5,257.4,726.5z"/>
		<path class="st1" d="M257.4,663.8c5.5,0,9.9,4.4,9.9,9.9c0,5.5-4.4,9.9-9.9,9.9c-5.5,0-9.9-4.4-9.9-9.9
			C247.5,668.2,251.9,663.8,257.4,663.8z"/>
		<circle class="st1" cx="257.4" cy="611" r="9.9"/>
		<circle class="st1" cx="257.4" cy="548.3" r="9.9"/>
		<path class="st1" d="M257.4,475.7c5.5,0,9.9,4.4,9.9,9.9c0,5.5-4.4,9.9-9.9,9.9c-5.5,0-9.9-4.4-9.9-9.9
			C247.5,480.2,251.9,475.7,257.4,475.7z"/>
		<path class="st1" d="M257.4,413.1c5.5,0,9.9,4.4,9.9,9.9c0,5.5-4.4,9.9-9.9,9.9c-5.5,0-9.9-4.4-9.9-9.9
			C247.5,417.5,251.9,413.1,257.4,413.1z"/>
		<path class="st1" d="M257.4,350.4c5.5,0,9.9,4.4,9.9,9.9c0,5.5-4.4,9.9-9.9,9.9c-5.5,0-9.9-4.4-9.9-9.9
			C247.5,354.8,251.9,350.4,257.4,350.4z"/>
		<path class="st1" d="M257.4,287.7c5.5,0,9.9,4.4,9.9,9.9c0,5.5-4.4,9.9-9.9,9.9c-5.5,0-9.9-4.4-9.9-9.9
			C247.5,292.1,251.9,287.7,257.4,287.7z"/>
		<circle class="st1" cx="257.4" cy="234.9" r="9.9"/>
		<path class="st1" d="M257.4,162.3c5.5,0,9.9,4.4,9.9,9.9c0,5.5-4.4,9.9-9.9,9.9c-5.5,0-9.9-4.4-9.9-9.9
			C247.5,166.8,251.9,162.3,257.4,162.3z"/>
		<circle class="st1" cx="257.4" cy="109.6" r="9.9"/>
		<path class="st1" d="M257.4,37c5.5,0,9.9,4.4,9.9,9.9c0,5.5-4.4,9.9-9.9,9.9c-5.5,0-9.9-4.4-9.9-9.9C247.5,41.4,251.9,37,257.4,37
			z"/>
		<circle class="st1" cx="303.4" cy="987.1" r="9.9"/>
		<path class="st1" d="M303.4,914.5c5.5,0,9.9,4.4,9.9,9.9c0,5.5-4.4,9.9-9.9,9.9c-5.5,0-9.9-4.4-9.9-9.9
			C293.5,919,298,914.5,303.4,914.5z"/>
		<path class="st1" d="M303.4,851.8c5.5,0,9.9,4.4,9.9,9.9s-4.4,9.9-9.9,9.9c-5.5,0-9.9-4.4-9.9-9.9S298,851.8,303.4,851.8z"/>
		<path class="st1" d="M303.4,789.1c5.5,0,9.9,4.4,9.9,9.9c0,5.5-4.4,9.9-9.9,9.9c-5.5,0-9.9-4.4-9.9-9.9
			C293.5,793.6,298,789.1,303.4,789.1z"/>
		<path class="st1" d="M303.4,726.5c5.5,0,9.9,4.4,9.9,9.9s-4.4,9.9-9.9,9.9c-5.5,0-9.9-4.4-9.9-9.9S298,726.5,303.4,726.5z"/>
		<path class="st1" d="M303.4,663.8c5.5,0,9.9,4.4,9.9,9.9c0,5.5-4.4,9.9-9.9,9.9c-5.5,0-9.9-4.4-9.9-9.9
			C293.5,668.2,298,663.8,303.4,663.8z"/>
		<circle class="st1" cx="303.4" cy="611" r="9.9"/>
		<circle class="st1" cx="303.4" cy="548.3" r="9.9"/>
		<path class="st1" d="M303.4,475.7c5.5,0,9.9,4.4,9.9,9.9c0,5.5-4.4,9.9-9.9,9.9c-5.5,0-9.9-4.4-9.9-9.9
			C293.5,480.2,298,475.7,303.4,475.7z"/>
		<path class="st1" d="M303.4,413.1c5.5,0,9.9,4.4,9.9,9.9c0,5.5-4.4,9.9-9.9,9.9c-5.5,0-9.9-4.4-9.9-9.9
			C293.5,417.5,298,413.1,303.4,413.1z"/>
		<path class="st1" d="M303.4,350.4c5.5,0,9.9,4.4,9.9,9.9c0,5.5-4.4,9.9-9.9,9.9c-5.5,0-9.9-4.4-9.9-9.9
			C293.5,354.8,298,350.4,303.4,350.4z"/>
		<path class="st1" d="M303.4,287.7c5.5,0,9.9,4.4,9.9,9.9c0,5.5-4.4,9.9-9.9,9.9c-5.5,0-9.9-4.4-9.9-9.9
			C293.5,292.1,298,287.7,303.4,287.7z"/>
		<circle class="st1" cx="303.4" cy="234.9" r="9.9"/>
		<path class="st1" d="M303.4,162.3c5.5,0,9.9,4.4,9.9,9.9c0,5.5-4.4,9.9-9.9,9.9c-5.5,0-9.9-4.4-9.9-9.9
			C293.5,166.8,298,162.3,303.4,162.3z"/>
		<circle class="st1" cx="303.4" cy="109.6" r="9.9"/>
		<path class="st1" d="M303.4,37c5.5,0,9.9,4.4,9.9,9.9c0,5.5-4.4,9.9-9.9,9.9c-5.5,0-9.9-4.4-9.9-9.9C293.5,41.4,298,37,303.4,37z"
			/>
		<path class="st1" d="M349.5,977.2c5.5,0,9.9,4.4,9.9,9.9c0,5.5-4.4,9.9-9.9,9.9c-5.5,0-9.9-4.4-9.9-9.9
			C339.5,981.6,344,977.2,349.5,977.2z"/>
		<path class="st1" d="M349.5,914.5c5.5,0,9.9,4.4,9.9,9.9c0,5.5-4.4,9.9-9.9,9.9c-5.5,0-9.9-4.4-9.9-9.9
			C339.5,919,344,914.5,349.5,914.5z"/>
		<path class="st1" d="M349.5,851.8c5.5,0,9.9,4.4,9.9,9.9s-4.4,9.9-9.9,9.9c-5.5,0-9.9-4.4-9.9-9.9S344,851.8,349.5,851.8z"/>
		<path class="st1" d="M349.5,789.1c5.5,0,9.9,4.4,9.9,9.9c0,5.5-4.4,9.9-9.9,9.9c-5.5,0-9.9-4.4-9.9-9.9
			C339.5,793.6,344,789.1,349.5,789.1z"/>
		<path class="st1" d="M349.5,726.5c5.5,0,9.9,4.4,9.9,9.9s-4.4,9.9-9.9,9.9c-5.5,0-9.9-4.4-9.9-9.9S344,726.5,349.5,726.5z"/>
		<path class="st1" d="M349.5,663.8c5.5,0,9.9,4.4,9.9,9.9c0,5.5-4.4,9.9-9.9,9.9c-5.5,0-9.9-4.4-9.9-9.9
			C339.5,668.2,344,663.8,349.5,663.8z"/>
		<path class="st1" d="M349.5,601.1c5.5,0,9.9,4.4,9.9,9.9c0,5.5-4.4,9.9-9.9,9.9c-5.5,0-9.9-4.4-9.9-9.9
			C339.5,605.5,344,601.1,349.5,601.1z"/>
		<path class="st1" d="M349.5,538.4c5.5,0,9.9,4.4,9.9,9.9c0,5.5-4.4,9.9-9.9,9.9c-5.5,0-9.9-4.4-9.9-9.9
			C339.5,542.9,344,538.4,349.5,538.4z"/>
		<path class="st1" d="M349.5,475.7c5.5,0,9.9,4.4,9.9,9.9c0,5.5-4.4,9.9-9.9,9.9c-5.5,0-9.9-4.4-9.9-9.9
			C339.5,480.2,344,475.7,349.5,475.7z"/>
		<path class="st1" d="M349.5,413.1c5.5,0,9.9,4.4,9.9,9.9c0,5.5-4.4,9.9-9.9,9.9c-5.5,0-9.9-4.4-9.9-9.9
			C339.5,417.5,344,413.1,349.5,413.1z"/>
		<path class="st1" d="M349.5,350.4c5.5,0,9.9,4.4,9.9,9.9c0,5.5-4.4,9.9-9.9,9.9c-5.5,0-9.9-4.4-9.9-9.9
			C339.5,354.8,344,350.4,349.5,350.4z"/>
		<path class="st1" d="M349.5,287.7c5.5,0,9.9,4.4,9.9,9.9c0,5.5-4.4,9.9-9.9,9.9c-5.5,0-9.9-4.4-9.9-9.9
			C339.5,292.1,344,287.7,349.5,287.7z"/>
		<path class="st1" d="M349.5,225c5.5,0,9.9,4.4,9.9,9.9c0,5.5-4.4,9.9-9.9,9.9c-5.5,0-9.9-4.4-9.9-9.9
			C339.5,229.4,344,225,349.5,225z"/>
		<path class="st1" d="M349.5,162.3c5.5,0,9.9,4.4,9.9,9.9c0,5.5-4.4,9.9-9.9,9.9c-5.5,0-9.9-4.4-9.9-9.9
			C339.5,166.8,344,162.3,349.5,162.3z"/>
		<path class="st1" d="M349.5,99.6c5.5,0,9.9,4.4,9.9,9.9c0,5.5-4.4,9.9-9.9,9.9c-5.5,0-9.9-4.4-9.9-9.9
			C339.5,104.1,344,99.6,349.5,99.6z"/>
		<path class="st1" d="M349.5,37c5.5,0,9.9,4.4,9.9,9.9c0,5.5-4.4,9.9-9.9,9.9c-5.5,0-9.9-4.4-9.9-9.9C339.5,41.4,344,37,349.5,37z"
			/>
		<path class="st1" d="M395.5,977.2c5.5,0,9.9,4.4,9.9,9.9c0,5.5-4.4,9.9-9.9,9.9c-5.5,0-9.9-4.4-9.9-9.9
			C385.6,981.6,390,977.2,395.5,977.2z"/>
		<path class="st1" d="M395.5,914.5c5.5,0,9.9,4.4,9.9,9.9c0,5.5-4.4,9.9-9.9,9.9c-5.5,0-9.9-4.4-9.9-9.9
			C385.6,919,390,914.5,395.5,914.5z"/>
		<path class="st1" d="M395.5,851.8c5.5,0,9.9,4.4,9.9,9.9s-4.4,9.9-9.9,9.9c-5.5,0-9.9-4.4-9.9-9.9S390,851.8,395.5,851.8z"/>
		<path class="st1" d="M395.5,789.1c5.5,0,9.9,4.4,9.9,9.9c0,5.5-4.4,9.9-9.9,9.9c-5.5,0-9.9-4.4-9.9-9.9
			C385.6,793.6,390,789.1,395.5,789.1z"/>
		<path class="st1" d="M395.5,726.5c5.5,0,9.9,4.4,9.9,9.9s-4.4,9.9-9.9,9.9c-5.5,0-9.9-4.4-9.9-9.9S390,726.5,395.5,726.5z"/>
		<path class="st1" d="M395.5,663.8c5.5,0,9.9,4.4,9.9,9.9c0,5.5-4.4,9.9-9.9,9.9c-5.5,0-9.9-4.4-9.9-9.9
			C385.6,668.2,390,663.8,395.5,663.8z"/>
		<path class="st1" d="M395.5,601.1c5.5,0,9.9,4.4,9.9,9.9c0,5.5-4.4,9.9-9.9,9.9c-5.5,0-9.9-4.4-9.9-9.9
			C385.6,605.5,390,601.1,395.5,601.1z"/>
		<path class="st1" d="M395.5,538.4c5.5,0,9.9,4.4,9.9,9.9c0,5.5-4.4,9.9-9.9,9.9c-5.5,0-9.9-4.4-9.9-9.9
			C385.6,542.9,390,538.4,395.5,538.4z"/>
		<path class="st1" d="M395.5,475.7c5.5,0,9.9,4.4,9.9,9.9c0,5.5-4.4,9.9-9.9,9.9c-5.5,0-9.9-4.4-9.9-9.9
			C385.6,480.2,390,475.7,395.5,475.7z"/>
		<path class="st1" d="M395.5,413.1c5.5,0,9.9,4.4,9.9,9.9c0,5.5-4.4,9.9-9.9,9.9c-5.5,0-9.9-4.4-9.9-9.9
			C385.6,417.5,390,413.1,395.5,413.1z"/>
		<path class="st1" d="M395.5,350.4c5.5,0,9.9,4.4,9.9,9.9c0,5.5-4.4,9.9-9.9,9.9c-5.5,0-9.9-4.4-9.9-9.9
			C385.6,354.8,390,350.4,395.5,350.4z"/>
		<path class="st1" d="M395.5,287.7c5.5,0,9.9,4.4,9.9,9.9c0,5.5-4.4,9.9-9.9,9.9c-5.5,0-9.9-4.4-9.9-9.9
			C385.6,292.1,390,287.7,395.5,287.7z"/>
		<path class="st1" d="M395.5,225c5.5,0,9.9,4.4,9.9,9.9c0,5.5-4.4,9.9-9.9,9.9c-5.5,0-9.9-4.4-9.9-9.9
			C385.6,229.4,390,225,395.5,225z"/>
		<path class="st1" d="M395.5,162.3c5.5,0,9.9,4.4,9.9,9.9c0,5.5-4.4,9.9-9.9,9.9c-5.5,0-9.9-4.4-9.9-9.9
			C385.6,166.8,390,162.3,395.5,162.3z"/>
		<path class="st1" d="M395.5,99.6c5.5,0,9.9,4.4,9.9,9.9c0,5.5-4.4,9.9-9.9,9.9c-5.5,0-9.9-4.4-9.9-9.9
			C385.6,104.1,390,99.6,395.5,99.6z"/>
		<path class="st1" d="M395.5,37c5.5,0,9.9,4.4,9.9,9.9c0,5.5-4.4,9.9-9.9,9.9c-5.5,0-9.9-4.4-9.9-9.9C385.6,41.4,390,37,395.5,37z"
			/>
		<path class="st1" d="M441.5,977.2c5.5,0,9.9,4.4,9.9,9.9c0,5.5-4.4,9.9-9.9,9.9c-5.5,0-9.9-4.4-9.9-9.9
			C431.6,981.6,436,977.2,441.5,977.2z"/>
		<path class="st1" d="M441.5,914.5c5.5,0,9.9,4.4,9.9,9.9c0,5.5-4.4,9.9-9.9,9.9c-5.5,0-9.9-4.4-9.9-9.9
			C431.6,919,436,914.5,441.5,914.5z"/>
		<path class="st1" d="M441.5,851.8c5.5,0,9.9,4.4,9.9,9.9s-4.4,9.9-9.9,9.9c-5.5,0-9.9-4.4-9.9-9.9S436,851.8,441.5,851.8z"/>
		<path class="st1" d="M441.5,789.1c5.5,0,9.9,4.4,9.9,9.9c0,5.5-4.4,9.9-9.9,9.9c-5.5,0-9.9-4.4-9.9-9.9
			C431.6,793.6,436,789.1,441.5,789.1z"/>
		<path class="st1" d="M441.5,726.5c5.5,0,9.9,4.4,9.9,9.9s-4.4,9.9-9.9,9.9c-5.5,0-9.9-4.4-9.9-9.9S436,726.5,441.5,726.5z"/>
		<path class="st1" d="M441.5,663.8c5.5,0,9.9,4.4,9.9,9.9c0,5.5-4.4,9.9-9.9,9.9c-5.5,0-9.9-4.4-9.9-9.9
			C431.6,668.2,436,663.8,441.5,663.8z"/>
		<path class="st1" d="M441.5,601.1c5.5,0,9.9,4.4,9.9,9.9c0,5.5-4.4,9.9-9.9,9.9c-5.5,0-9.9-4.4-9.9-9.9
			C431.6,605.5,436,601.1,441.5,601.1z"/>
		<path class="st1" d="M441.5,538.4c5.5,0,9.9,4.4,9.9,9.9c0,5.5-4.4,9.9-9.9,9.9c-5.5,0-9.9-4.4-9.9-9.9
			C431.6,542.9,436,538.4,441.5,538.4z"/>
		<path class="st1" d="M441.5,475.7c5.5,0,9.9,4.4,9.9,9.9c0,5.5-4.4,9.9-9.9,9.9c-5.5,0-9.9-4.4-9.9-9.9
			C431.6,480.2,436,475.7,441.5,475.7z"/>
		<path class="st1" d="M441.5,413.1c5.5,0,9.9,4.4,9.9,9.9c0,5.5-4.4,9.9-9.9,9.9c-5.5,0-9.9-4.4-9.9-9.9
			C431.6,417.5,436,413.1,441.5,413.1z"/>
		<path class="st1" d="M441.5,350.4c5.5,0,9.9,4.4,9.9,9.9c0,5.5-4.4,9.9-9.9,9.9c-5.5,0-9.9-4.4-9.9-9.9
			C431.6,354.8,436,350.4,441.5,350.4z"/>
		<path class="st1" d="M441.5,287.7c5.5,0,9.9,4.4,9.9,9.9c0,5.5-4.4,9.9-9.9,9.9c-5.5,0-9.9-4.4-9.9-9.9
			C431.6,292.1,436,287.7,441.5,287.7z"/>
		<path class="st1" d="M441.5,225c5.5,0,9.9,4.4,9.9,9.9c0,5.5-4.4,9.9-9.9,9.9c-5.5,0-9.9-4.4-9.9-9.9
			C431.6,229.4,436,225,441.5,225z"/>
		<path class="st1" d="M441.5,162.3c5.5,0,9.9,4.4,9.9,9.9c0,5.5-4.4,9.9-9.9,9.9c-5.5,0-9.9-4.4-9.9-9.9
			C431.6,166.8,436,162.3,441.5,162.3z"/>
		<path class="st1" d="M441.5,99.6c5.5,0,9.9,4.4,9.9,9.9c0,5.5-4.4,9.9-9.9,9.9c-5.5,0-9.9-4.4-9.9-9.9
			C431.6,104.1,436,99.6,441.5,99.6z"/>
		<path class="st1" d="M441.5,37c5.5,0,9.9,4.4,9.9,9.9c0,5.5-4.4,9.9-9.9,9.9c-5.5,0-9.9-4.4-9.9-9.9C431.6,41.4,436,37,441.5,37z"
			/>
		<path class="st1" d="M487.6,977.2c5.5,0,9.9,4.4,9.9,9.9c0,5.5-4.4,9.9-9.9,9.9c-5.5,0-9.9-4.4-9.9-9.9
			C477.6,981.6,482.1,977.2,487.6,977.2z"/>
		<path class="st1" d="M487.6,914.5c5.5,0,9.9,4.4,9.9,9.9c0,5.5-4.4,9.9-9.9,9.9c-5.5,0-9.9-4.4-9.9-9.9
			C477.6,919,482.1,914.5,487.6,914.5z"/>
		<path class="st1" d="M487.6,851.8c5.5,0,9.9,4.4,9.9,9.9s-4.4,9.9-9.9,9.9c-5.5,0-9.9-4.4-9.9-9.9S482.1,851.8,487.6,851.8z"/>
		<path class="st1" d="M487.6,789.1c5.5,0,9.9,4.4,9.9,9.9c0,5.5-4.4,9.9-9.9,9.9c-5.5,0-9.9-4.4-9.9-9.9
			C477.6,793.6,482.1,789.1,487.6,789.1z"/>
		<path class="st1" d="M487.6,726.5c5.5,0,9.9,4.4,9.9,9.9s-4.4,9.9-9.9,9.9c-5.5,0-9.9-4.4-9.9-9.9S482.1,726.5,487.6,726.5z"/>
		<path class="st1" d="M487.6,663.8c5.5,0,9.9,4.4,9.9,9.9c0,5.5-4.4,9.9-9.9,9.9c-5.5,0-9.9-4.4-9.9-9.9
			C477.6,668.2,482.1,663.8,487.6,663.8z"/>
		<path class="st1" d="M487.6,601.1c5.5,0,9.9,4.4,9.9,9.9c0,5.5-4.4,9.9-9.9,9.9c-5.5,0-9.9-4.4-9.9-9.9
			C477.6,605.5,482.1,601.1,487.6,601.1z"/>
		<path class="st1" d="M487.6,538.4c5.5,0,9.9,4.4,9.9,9.9c0,5.5-4.4,9.9-9.9,9.9c-5.5,0-9.9-4.4-9.9-9.9
			C477.6,542.9,482.1,538.4,487.6,538.4z"/>
		<path class="st1" d="M487.6,475.7c5.5,0,9.9,4.4,9.9,9.9c0,5.5-4.4,9.9-9.9,9.9c-5.5,0-9.9-4.4-9.9-9.9
			C477.6,480.2,482.1,475.7,487.6,475.7z"/>
		<path class="st1" d="M487.6,413.1c5.5,0,9.9,4.4,9.9,9.9c0,5.5-4.4,9.9-9.9,9.9c-5.5,0-9.9-4.4-9.9-9.9
			C477.6,417.5,482.1,413.1,487.6,413.1z"/>
		<path class="st1" d="M487.6,350.4c5.5,0,9.9,4.4,9.9,9.9c0,5.5-4.4,9.9-9.9,9.9c-5.5,0-9.9-4.4-9.9-9.9
			C477.6,354.8,482.1,350.4,487.6,350.4z"/>
		<path class="st1" d="M487.6,287.7c5.5,0,9.9,4.4,9.9,9.9c0,5.5-4.4,9.9-9.9,9.9c-5.5,0-9.9-4.4-9.9-9.9
			C477.6,292.1,482.1,287.7,487.6,287.7z"/>
		<path class="st1" d="M487.6,225c5.5,0,9.9,4.4,9.9,9.9c0,5.5-4.4,9.9-9.9,9.9c-5.5,0-9.9-4.4-9.9-9.9
			C477.6,229.4,482.1,225,487.6,225z"/>
		<path class="st1" d="M487.6,162.3c5.5,0,9.9,4.4,9.9,9.9c0,5.5-4.4,9.9-9.9,9.9c-5.5,0-9.9-4.4-9.9-9.9
			C477.6,166.8,482.1,162.3,487.6,162.3z"/>
		<path class="st1" d="M487.6,99.6c5.5,0,9.9,4.4,9.9,9.9c0,5.5-4.4,9.9-9.9,9.9c-5.5,0-9.9-4.4-9.9-9.9
			C477.6,104.1,482.1,99.6,487.6,99.6z"/>
		<path class="st1" d="M487.6,37c5.5,0,9.9,4.4,9.9,9.9c0,5.5-4.4,9.9-9.9,9.9c-5.5,0-9.9-4.4-9.9-9.9C477.6,41.4,482.1,37,487.6,37
			z"/>
		<circle class="st1" cx="533.6" cy="987.1" r="9.9"/>
		<path class="st1" d="M533.6,914.5c5.5,0,9.9,4.4,9.9,9.9c0,5.5-4.4,9.9-9.9,9.9c-5.5,0-9.9-4.4-9.9-9.9
			C523.7,919,528.1,914.5,533.6,914.5z"/>
		<path class="st1" d="M533.6,851.8c5.5,0,9.9,4.4,9.9,9.9s-4.4,9.9-9.9,9.9c-5.5,0-9.9-4.4-9.9-9.9S528.1,851.8,533.6,851.8z"/>
		<path class="st1" d="M533.6,789.1c5.5,0,9.9,4.4,9.9,9.9c0,5.5-4.4,9.9-9.9,9.9c-5.5,0-9.9-4.4-9.9-9.9
			C523.7,793.6,528.1,789.1,533.6,789.1z"/>
		<path class="st1" d="M533.6,726.5c5.5,0,9.9,4.4,9.9,9.9s-4.4,9.9-9.9,9.9c-5.5,0-9.9-4.4-9.9-9.9S528.1,726.5,533.6,726.5z"/>
		<path class="st1" d="M533.6,663.8c5.5,0,9.9,4.4,9.9,9.9c0,5.5-4.4,9.9-9.9,9.9c-5.5,0-9.9-4.4-9.9-9.9
			C523.7,668.2,528.1,663.8,533.6,663.8z"/>
		<circle class="st1" cx="533.6" cy="611" r="9.9"/>
		<circle class="st1" cx="533.6" cy="548.3" r="9.9"/>
		<path class="st1" d="M533.6,475.7c5.5,0,9.9,4.4,9.9,9.9c0,5.5-4.4,9.9-9.9,9.9c-5.5,0-9.9-4.4-9.9-9.9
			C523.7,480.2,528.1,475.7,533.6,475.7z"/>
		<path class="st1" d="M533.6,413.1c5.5,0,9.9,4.4,9.9,9.9c0,5.5-4.4,9.9-9.9,9.9c-5.5,0-9.9-4.4-9.9-9.9
			C523.7,417.5,528.1,413.1,533.6,413.1z"/>
		<path class="st1" d="M533.6,350.4c5.5,0,9.9,4.4,9.9,9.9c0,5.5-4.4,9.9-9.9,9.9c-5.5,0-9.9-4.4-9.9-9.9
			C523.7,354.8,528.1,350.4,533.6,350.4z"/>
		<path class="st1" d="M533.6,287.7c5.5,0,9.9,4.4,9.9,9.9c0,5.5-4.4,9.9-9.9,9.9c-5.5,0-9.9-4.4-9.9-9.9
			C523.7,292.1,528.1,287.7,533.6,287.7z"/>
		<circle class="st1" cx="533.6" cy="234.9" r="9.9"/>
		<path class="st1" d="M533.6,162.3c5.5,0,9.9,4.4,9.9,9.9c0,5.5-4.4,9.9-9.9,9.9c-5.5,0-9.9-4.4-9.9-9.9
			C523.7,166.8,528.1,162.3,533.6,162.3z"/>
		<circle class="st1" cx="533.6" cy="109.6" r="9.9"/>
		<path class="st1" d="M533.6,37c5.5,0,9.9,4.4,9.9,9.9c0,5.5-4.4,9.9-9.9,9.9c-5.5,0-9.9-4.4-9.9-9.9C523.7,41.4,528.1,37,533.6,37
			z"/>
		<circle class="st1" cx="579.6" cy="987.1" r="9.9"/>
		<path class="st1" d="M579.6,914.5c5.5,0,9.9,4.4,9.9,9.9c0,5.5-4.4,9.9-9.9,9.9s-9.9-4.4-9.9-9.9
			C569.7,919,574.1,914.5,579.6,914.5z"/>
		<path class="st1" d="M579.6,851.8c5.5,0,9.9,4.4,9.9,9.9s-4.4,9.9-9.9,9.9s-9.9-4.4-9.9-9.9S574.1,851.8,579.6,851.8z"/>
		<path class="st1" d="M579.6,789.1c5.5,0,9.9,4.4,9.9,9.9c0,5.5-4.4,9.9-9.9,9.9s-9.9-4.4-9.9-9.9
			C569.7,793.6,574.1,789.1,579.6,789.1z"/>
		<path class="st1" d="M579.6,726.5c5.5,0,9.9,4.4,9.9,9.9s-4.4,9.9-9.9,9.9s-9.9-4.4-9.9-9.9S574.1,726.5,579.6,726.5z"/>
		<path class="st1" d="M579.6,663.8c5.5,0,9.9,4.4,9.9,9.9c0,5.5-4.4,9.9-9.9,9.9s-9.9-4.4-9.9-9.9
			C569.7,668.2,574.1,663.8,579.6,663.8z"/>
		<circle class="st1" cx="579.6" cy="611" r="9.9"/>
		<circle class="st1" cx="579.6" cy="548.3" r="9.9"/>
		<path class="st1" d="M579.6,475.7c5.5,0,9.9,4.4,9.9,9.9c0,5.5-4.4,9.9-9.9,9.9s-9.9-4.4-9.9-9.9
			C569.7,480.2,574.1,475.7,579.6,475.7z"/>
		<path class="st1" d="M579.6,413.1c5.5,0,9.9,4.4,9.9,9.9c0,5.5-4.4,9.9-9.9,9.9s-9.9-4.4-9.9-9.9
			C569.7,417.5,574.1,413.1,579.6,413.1z"/>
		<path class="st1" d="M579.6,350.4c5.5,0,9.9,4.4,9.9,9.9c0,5.5-4.4,9.9-9.9,9.9s-9.9-4.4-9.9-9.9
			C569.7,354.8,574.1,350.4,579.6,350.4z"/>
		<path class="st1" d="M579.6,287.7c5.5,0,9.9,4.4,9.9,9.9c0,5.5-4.4,9.9-9.9,9.9s-9.9-4.4-9.9-9.9
			C569.7,292.1,574.1,287.7,579.6,287.7z"/>
		<circle class="st1" cx="579.6" cy="234.9" r="9.9"/>
		<path class="st1" d="M579.6,162.3c5.5,0,9.9,4.4,9.9,9.9c0,5.5-4.4,9.9-9.9,9.9s-9.9-4.4-9.9-9.9
			C569.7,166.8,574.1,162.3,579.6,162.3z"/>
		<circle class="st1" cx="579.6" cy="109.6" r="9.9"/>
		<path class="st1" d="M579.6,37c5.5,0,9.9,4.4,9.9,9.9c0,5.5-4.4,9.9-9.9,9.9s-9.9-4.4-9.9-9.9C569.7,41.4,574.1,37,579.6,37z"/>
		<path class="st1" d="M625.6,977.2c5.5,0,9.9,4.4,9.9,9.9c0,5.5-4.4,9.9-9.9,9.9c-5.5,0-9.9-4.4-9.9-9.9
			C615.7,981.6,620.2,977.2,625.6,977.2z"/>
		<path class="st1" d="M625.6,914.5c5.5,0,9.9,4.4,9.9,9.9c0,5.5-4.4,9.9-9.9,9.9c-5.5,0-9.9-4.4-9.9-9.9
			C615.7,919,620.2,914.5,625.6,914.5z"/>
		<path class="st1" d="M625.6,851.8c5.5,0,9.9,4.4,9.9,9.9s-4.4,9.9-9.9,9.9c-5.5,0-9.9-4.4-9.9-9.9S620.2,851.8,625.6,851.8z"/>
		<path class="st1" d="M625.6,789.1c5.5,0,9.9,4.4,9.9,9.9c0,5.5-4.4,9.9-9.9,9.9c-5.5,0-9.9-4.4-9.9-9.9
			C615.7,793.6,620.2,789.1,625.6,789.1z"/>
		<path class="st1" d="M625.6,726.5c5.5,0,9.9,4.4,9.9,9.9s-4.4,9.9-9.9,9.9c-5.5,0-9.9-4.4-9.9-9.9S620.2,726.5,625.6,726.5z"/>
		<path class="st1" d="M625.6,663.8c5.5,0,9.9,4.4,9.9,9.9c0,5.5-4.4,9.9-9.9,9.9c-5.5,0-9.9-4.4-9.9-9.9
			C615.7,668.2,620.2,663.8,625.6,663.8z"/>
		<path class="st1" d="M625.6,601.1c5.5,0,9.9,4.4,9.9,9.9c0,5.5-4.4,9.9-9.9,9.9c-5.5,0-9.9-4.4-9.9-9.9
			C615.7,605.5,620.2,601.1,625.6,601.1z"/>
		<path class="st1" d="M625.6,538.4c5.5,0,9.9,4.4,9.9,9.9c0,5.5-4.4,9.9-9.9,9.9c-5.5,0-9.9-4.4-9.9-9.9
			C615.7,542.9,620.2,538.4,625.6,538.4z"/>
		<path class="st1" d="M625.6,475.7c5.5,0,9.9,4.4,9.9,9.9c0,5.5-4.4,9.9-9.9,9.9c-5.5,0-9.9-4.4-9.9-9.9
			C615.7,480.2,620.2,475.7,625.6,475.7z"/>
		<path class="st1" d="M625.6,413.1c5.5,0,9.9,4.4,9.9,9.9c0,5.5-4.4,9.9-9.9,9.9c-5.5,0-9.9-4.4-9.9-9.9
			C615.7,417.5,620.2,413.1,625.6,413.1z"/>
		<path class="st1" d="M625.6,350.4c5.5,0,9.9,4.4,9.9,9.9c0,5.5-4.4,9.9-9.9,9.9c-5.5,0-9.9-4.4-9.9-9.9
			C615.7,354.8,620.2,350.4,625.6,350.4z"/>
		<path class="st1" d="M625.6,287.7c5.5,0,9.9,4.4,9.9,9.9c0,5.5-4.4,9.9-9.9,9.9c-5.5,0-9.9-4.4-9.9-9.9
			C615.7,292.1,620.2,287.7,625.6,287.7z"/>
		<path class="st1" d="M625.6,225c5.5,0,9.9,4.4,9.9,9.9c0,5.5-4.4,9.9-9.9,9.9c-5.5,0-9.9-4.4-9.9-9.9
			C615.7,229.4,620.2,225,625.6,225z"/>
		<path class="st1" d="M625.6,162.3c5.5,0,9.9,4.4,9.9,9.9c0,5.5-4.4,9.9-9.9,9.9c-5.5,0-9.9-4.4-9.9-9.9
			C615.7,166.8,620.2,162.3,625.6,162.3z"/>
		<path class="st1" d="M625.6,99.6c5.5,0,9.9,4.4,9.9,9.9c0,5.5-4.4,9.9-9.9,9.9c-5.5,0-9.9-4.4-9.9-9.9
			C615.7,104.1,620.2,99.6,625.6,99.6z"/>
		<path class="st1" d="M625.6,37c5.5,0,9.9,4.4,9.9,9.9c0,5.5-4.4,9.9-9.9,9.9c-5.5,0-9.9-4.4-9.9-9.9C615.7,41.4,620.2,37,625.6,37
			z"/>
		<circle class="st1" cx="671.7" cy="987.1" r="9.9"/>
		<path class="st1" d="M671.7,914.5c5.5,0,9.9,4.4,9.9,9.9c0,5.5-4.4,9.9-9.9,9.9c-5.5,0-9.9-4.4-9.9-9.9
			C661.8,919,666.2,914.5,671.7,914.5z"/>
		<path class="st1" d="M671.7,851.8c5.5,0,9.9,4.4,9.9,9.9s-4.4,9.9-9.9,9.9c-5.5,0-9.9-4.4-9.9-9.9S666.2,851.8,671.7,851.8z"/>
		<path class="st1" d="M671.7,789.1c5.5,0,9.9,4.4,9.9,9.9c0,5.5-4.4,9.9-9.9,9.9c-5.5,0-9.9-4.4-9.9-9.9
			C661.8,793.6,666.2,789.1,671.7,789.1z"/>
		<path class="st1" d="M671.7,726.5c5.5,0,9.9,4.4,9.9,9.9s-4.4,9.9-9.9,9.9c-5.5,0-9.9-4.4-9.9-9.9S666.2,726.5,671.7,726.5z"/>
		<path class="st1" d="M671.7,663.8c5.5,0,9.9,4.4,9.9,9.9c0,5.5-4.4,9.9-9.9,9.9c-5.5,0-9.9-4.4-9.9-9.9
			C661.8,668.2,666.2,663.8,671.7,663.8z"/>
		<circle class="st1" cx="671.7" cy="611" r="9.9"/>
		<circle class="st1" cx="671.7" cy="548.3" r="9.9"/>
		<path class="st1" d="M671.7,475.7c5.5,0,9.9,4.4,9.9,9.9c0,5.5-4.4,9.9-9.9,9.9c-5.5,0-9.9-4.4-9.9-9.9
			C661.8,480.2,666.2,475.7,671.7,475.7z"/>
		<path class="st1" d="M671.7,413.1c5.5,0,9.9,4.4,9.9,9.9c0,5.5-4.4,9.9-9.9,9.9c-5.5,0-9.9-4.4-9.9-9.9
			C661.8,417.5,666.2,413.1,671.7,413.1z"/>
		<path class="st1" d="M671.7,350.4c5.5,0,9.9,4.4,9.9,9.9c0,5.5-4.4,9.9-9.9,9.9c-5.5,0-9.9-4.4-9.9-9.9
			C661.8,354.8,666.2,350.4,671.7,350.4z"/>
		<path class="st1" d="M671.7,287.7c5.5,0,9.9,4.4,9.9,9.9c0,5.5-4.4,9.9-9.9,9.9c-5.5,0-9.9-4.4-9.9-9.9
			C661.8,292.1,666.2,287.7,671.7,287.7z"/>
		<circle class="st1" cx="671.7" cy="234.9" r="9.9"/>
		<path class="st1" d="M671.7,162.3c5.5,0,9.9,4.4,9.9,9.9c0,5.5-4.4,9.9-9.9,9.9c-5.5,0-9.9-4.4-9.9-9.9
			C661.8,166.8,666.2,162.3,671.7,162.3z"/>
		<circle class="st1" cx="671.7" cy="109.6" r="9.9"/>
		<path class="st1" d="M671.7,37c5.5,0,9.9,4.4,9.9,9.9c0,5.5-4.4,9.9-9.9,9.9c-5.5,0-9.9-4.4-9.9-9.9C661.8,41.4,666.2,37,671.7,37
			z"/>
		<path class="st1" d="M717.7,977.2c5.5,0,9.9,4.4,9.9,9.9c0,5.5-4.4,9.9-9.9,9.9c-5.5,0-9.9-4.4-9.9-9.9
			C707.8,981.6,712.2,977.2,717.7,977.2z"/>
		<path class="st1" d="M717.7,914.5c5.5,0,9.9,4.4,9.9,9.9c0,5.5-4.4,9.9-9.9,9.9c-5.5,0-9.9-4.4-9.9-9.9
			C707.8,919,712.2,914.5,717.7,914.5z"/>
		<path class="st1" d="M717.7,851.8c5.5,0,9.9,4.4,9.9,9.9s-4.4,9.9-9.9,9.9c-5.5,0-9.9-4.4-9.9-9.9S712.2,851.8,717.7,851.8z"/>
		<path class="st1" d="M717.7,789.1c5.5,0,9.9,4.4,9.9,9.9c0,5.5-4.4,9.9-9.9,9.9c-5.5,0-9.9-4.4-9.9-9.9
			C707.8,793.6,712.2,789.1,717.7,789.1z"/>
		<path class="st1" d="M717.7,726.5c5.5,0,9.9,4.4,9.9,9.9s-4.4,9.9-9.9,9.9c-5.5,0-9.9-4.4-9.9-9.9S712.2,726.5,717.7,726.5z"/>
		<path class="st1" d="M717.7,663.8c5.5,0,9.9,4.4,9.9,9.9c0,5.5-4.4,9.9-9.9,9.9c-5.5,0-9.9-4.4-9.9-9.9
			C707.8,668.2,712.2,663.8,717.7,663.8z"/>
		<path class="st1" d="M717.7,601.1c5.5,0,9.9,4.4,9.9,9.9c0,5.5-4.4,9.9-9.9,9.9c-5.5,0-9.9-4.4-9.9-9.9
			C707.8,605.5,712.2,601.1,717.7,601.1z"/>
		<path class="st1" d="M717.7,538.4c5.5,0,9.9,4.4,9.9,9.9c0,5.5-4.4,9.9-9.9,9.9c-5.5,0-9.9-4.4-9.9-9.9
			C707.8,542.9,712.2,538.4,717.7,538.4z"/>
		<path class="st1" d="M717.7,475.7c5.5,0,9.9,4.4,9.9,9.9c0,5.5-4.4,9.9-9.9,9.9c-5.5,0-9.9-4.4-9.9-9.9
			C707.8,480.2,712.2,475.7,717.7,475.7z"/>
		<path class="st1" d="M717.7,413.1c5.5,0,9.9,4.4,9.9,9.9c0,5.5-4.4,9.9-9.9,9.9c-5.5,0-9.9-4.4-9.9-9.9
			C707.8,417.5,712.2,413.1,717.7,413.1z"/>
		<path class="st1" d="M717.7,350.4c5.5,0,9.9,4.4,9.9,9.9c0,5.5-4.4,9.9-9.9,9.9c-5.5,0-9.9-4.4-9.9-9.9
			C707.8,354.8,712.2,350.4,717.7,350.4z"/>
		<path class="st1" d="M717.7,287.7c5.5,0,9.9,4.4,9.9,9.9c0,5.5-4.4,9.9-9.9,9.9c-5.5,0-9.9-4.4-9.9-9.9
			C707.8,292.1,712.2,287.7,717.7,287.7z"/>
		<path class="st1" d="M717.7,225c5.5,0,9.9,4.4,9.9,9.9c0,5.5-4.4,9.9-9.9,9.9c-5.5,0-9.9-4.4-9.9-9.9
			C707.8,229.4,712.2,225,717.7,225z"/>
		<path class="st1" d="M717.7,162.3c5.5,0,9.9,4.4,9.9,9.9c0,5.5-4.4,9.9-9.9,9.9c-5.5,0-9.9-4.4-9.9-9.9
			C707.8,166.8,712.2,162.3,717.7,162.3z"/>
		<path class="st1" d="M717.7,99.6c5.5,0,9.9,4.4,9.9,9.9c0,5.5-4.4,9.9-9.9,9.9c-5.5,0-9.9-4.4-9.9-9.9
			C707.8,104.1,712.2,99.6,717.7,99.6z"/>
		<path class="st1" d="M717.7,37c5.5,0,9.9,4.4,9.9,9.9c0,5.5-4.4,9.9-9.9,9.9c-5.5,0-9.9-4.4-9.9-9.9C707.8,41.4,712.2,37,717.7,37
			z"/>
		<circle class="st1" cx="763.7" cy="987.1" r="9.9"/>
		<path class="st1" d="M763.7,914.5c5.5,0,9.9,4.4,9.9,9.9c0,5.5-4.4,9.9-9.9,9.9c-5.5,0-9.9-4.4-9.9-9.9
			C753.8,919,758.3,914.5,763.7,914.5z"/>
		<path class="st1" d="M763.7,851.8c5.5,0,9.9,4.4,9.9,9.9s-4.4,9.9-9.9,9.9c-5.5,0-9.9-4.4-9.9-9.9S758.3,851.8,763.7,851.8z"/>
		<path class="st1" d="M763.7,789.1c5.5,0,9.9,4.4,9.9,9.9c0,5.5-4.4,9.9-9.9,9.9c-5.5,0-9.9-4.4-9.9-9.9
			C753.8,793.6,758.3,789.1,763.7,789.1z"/>
		<path class="st1" d="M763.7,726.5c5.5,0,9.9,4.4,9.9,9.9s-4.4,9.9-9.9,9.9c-5.5,0-9.9-4.4-9.9-9.9S758.3,726.5,763.7,726.5z"/>
		<path class="st1" d="M763.7,663.8c5.5,0,9.9,4.4,9.9,9.9c0,5.5-4.4,9.9-9.9,9.9c-5.5,0-9.9-4.4-9.9-9.9
			C753.8,668.2,758.3,663.8,763.7,663.8z"/>
		<circle class="st1" cx="763.7" cy="611" r="9.9"/>
		<circle class="st1" cx="763.7" cy="548.3" r="9.9"/>
		<path class="st1" d="M763.7,475.7c5.5,0,9.9,4.4,9.9,9.9c0,5.5-4.4,9.9-9.9,9.9c-5.5,0-9.9-4.4-9.9-9.9
			C753.8,480.2,758.3,475.7,763.7,475.7z"/>
		<path class="st1" d="M763.7,413.1c5.5,0,9.9,4.4,9.9,9.9c0,5.5-4.4,9.9-9.9,9.9c-5.5,0-9.9-4.4-9.9-9.9
			C753.8,417.5,758.3,413.1,763.7,413.1z"/>
		<path class="st1" d="M763.7,350.4c5.5,0,9.9,4.4,9.9,9.9c0,5.5-4.4,9.9-9.9,9.9c-5.5,0-9.9-4.4-9.9-9.9
			C753.8,354.8,758.3,350.4,763.7,350.4z"/>
		<path class="st1" d="M763.7,287.7c5.5,0,9.9,4.4,9.9,9.9c0,5.5-4.4,9.9-9.9,9.9c-5.5,0-9.9-4.4-9.9-9.9
			C753.8,292.1,758.3,287.7,763.7,287.7z"/>
		<circle class="st1" cx="763.7" cy="234.9" r="9.9"/>
		<path class="st1" d="M763.7,162.3c5.5,0,9.9,4.4,9.9,9.9c0,5.5-4.4,9.9-9.9,9.9c-5.5,0-9.9-4.4-9.9-9.9
			C753.8,166.8,758.3,162.3,763.7,162.3z"/>
		<circle class="st1" cx="763.7" cy="109.6" r="9.9"/>
		<path class="st1" d="M763.7,37c5.5,0,9.9,4.4,9.9,9.9c0,5.5-4.4,9.9-9.9,9.9c-5.5,0-9.9-4.4-9.9-9.9C753.8,41.4,758.3,37,763.7,37
			z"/>
		<path class="st1" d="M809.8,977.2c5.5,0,9.9,4.4,9.9,9.9c0,5.5-4.4,9.9-9.9,9.9c-5.5,0-9.9-4.4-9.9-9.9
			C799.8,981.6,804.3,977.2,809.8,977.2z"/>
		<path class="st1" d="M809.8,914.5c5.5,0,9.9,4.4,9.9,9.9c0,5.5-4.4,9.9-9.9,9.9c-5.5,0-9.9-4.4-9.9-9.9
			C799.8,919,804.3,914.5,809.8,914.5z"/>
		<path class="st1" d="M809.8,851.8c5.5,0,9.9,4.4,9.9,9.9s-4.4,9.9-9.9,9.9c-5.5,0-9.9-4.4-9.9-9.9S804.3,851.8,809.8,851.8z"/>
		<path class="st1" d="M809.8,789.1c5.5,0,9.9,4.4,9.9,9.9c0,5.5-4.4,9.9-9.9,9.9c-5.5,0-9.9-4.4-9.9-9.9
			C799.8,793.6,804.3,789.1,809.8,789.1z"/>
		<path class="st1" d="M809.8,726.5c5.5,0,9.9,4.4,9.9,9.9s-4.4,9.9-9.9,9.9c-5.5,0-9.9-4.4-9.9-9.9S804.3,726.5,809.8,726.5z"/>
		<path class="st1" d="M809.8,663.8c5.5,0,9.9,4.4,9.9,9.9c0,5.5-4.4,9.9-9.9,9.9c-5.5,0-9.9-4.4-9.9-9.9
			C799.8,668.2,804.3,663.8,809.8,663.8z"/>
		<path class="st1" d="M809.8,601.1c5.5,0,9.9,4.4,9.9,9.9c0,5.5-4.4,9.9-9.9,9.9c-5.5,0-9.9-4.4-9.9-9.9
			C799.8,605.5,804.3,601.1,809.8,601.1z"/>
		<path class="st1" d="M809.8,538.4c5.5,0,9.9,4.4,9.9,9.9c0,5.5-4.4,9.9-9.9,9.9c-5.5,0-9.9-4.4-9.9-9.9
			C799.8,542.9,804.3,538.4,809.8,538.4z"/>
		<path class="st1" d="M809.8,475.7c5.5,0,9.9,4.4,9.9,9.9c0,5.5-4.4,9.9-9.9,9.9c-5.5,0-9.9-4.4-9.9-9.9
			C799.8,480.2,804.3,475.7,809.8,475.7z"/>
		<path class="st1" d="M809.8,413.1c5.5,0,9.9,4.4,9.9,9.9c0,5.5-4.4,9.9-9.9,9.9c-5.5,0-9.9-4.4-9.9-9.9
			C799.8,417.5,804.3,413.1,809.8,413.1z"/>
		<path class="st1" d="M809.8,350.4c5.5,0,9.9,4.4,9.9,9.9c0,5.5-4.4,9.9-9.9,9.9c-5.5,0-9.9-4.4-9.9-9.9
			C799.8,354.8,804.3,350.4,809.8,350.4z"/>
		<path class="st1" d="M809.8,287.7c5.5,0,9.9,4.4,9.9,9.9c0,5.5-4.4,9.9-9.9,9.9c-5.5,0-9.9-4.4-9.9-9.9
			C799.8,292.1,804.3,287.7,809.8,287.7z"/>
		<path class="st1" d="M809.8,225c5.5,0,9.9,4.4,9.9,9.9c0,5.5-4.4,9.9-9.9,9.9c-5.5,0-9.9-4.4-9.9-9.9
			C799.8,229.4,804.3,225,809.8,225z"/>
		<path class="st1" d="M809.8,162.3c5.5,0,9.9,4.4,9.9,9.9c0,5.5-4.4,9.9-9.9,9.9c-5.5,0-9.9-4.4-9.9-9.9
			C799.8,166.8,804.3,162.3,809.8,162.3z"/>
		<path class="st1" d="M809.8,99.6c5.5,0,9.9,4.4,9.9,9.9c0,5.5-4.4,9.9-9.9,9.9c-5.5,0-9.9-4.4-9.9-9.9
			C799.8,104.1,804.3,99.6,809.8,99.6z"/>
		<path class="st1" d="M809.8,37c5.5,0,9.9,4.4,9.9,9.9c0,5.5-4.4,9.9-9.9,9.9c-5.5,0-9.9-4.4-9.9-9.9C799.8,41.4,804.3,37,809.8,37
			z"/>
		<path class="st1" d="M855.8,977.2c5.5,0,9.9,4.4,9.9,9.9c0,5.5-4.4,9.9-9.9,9.9c-5.5,0-9.9-4.4-9.9-9.9
			C845.9,981.6,850.3,977.2,855.8,977.2z"/>
		<path class="st1" d="M855.8,914.5c5.5,0,9.9,4.4,9.9,9.9c0,5.5-4.4,9.9-9.9,9.9c-5.5,0-9.9-4.4-9.9-9.9
			C845.9,919,850.3,914.5,855.8,914.5z"/>
		<path class="st1" d="M855.8,851.8c5.5,0,9.9,4.4,9.9,9.9s-4.4,9.9-9.9,9.9c-5.5,0-9.9-4.4-9.9-9.9S850.3,851.8,855.8,851.8z"/>
		<path class="st1" d="M855.8,789.1c5.5,0,9.9,4.4,9.9,9.9c0,5.5-4.4,9.9-9.9,9.9c-5.5,0-9.9-4.4-9.9-9.9
			C845.9,793.6,850.3,789.1,855.8,789.1z"/>
		<path class="st1" d="M855.8,726.5c5.5,0,9.9,4.4,9.9,9.9s-4.4,9.9-9.9,9.9c-5.5,0-9.9-4.4-9.9-9.9S850.3,726.5,855.8,726.5z"/>
		<path class="st1" d="M855.8,663.8c5.5,0,9.9,4.4,9.9,9.9c0,5.5-4.4,9.9-9.9,9.9c-5.5,0-9.9-4.4-9.9-9.9
			C845.9,668.2,850.3,663.8,855.8,663.8z"/>
		<path class="st1" d="M855.8,601.1c5.5,0,9.9,4.4,9.9,9.9c0,5.5-4.4,9.9-9.9,9.9c-5.5,0-9.9-4.4-9.9-9.9
			C845.9,605.5,850.3,601.1,855.8,601.1z"/>
		<path class="st1" d="M855.8,538.4c5.5,0,9.9,4.4,9.9,9.9c0,5.5-4.4,9.9-9.9,9.9c-5.5,0-9.9-4.4-9.9-9.9
			C845.9,542.9,850.3,538.4,855.8,538.4z"/>
		<path class="st1" d="M855.8,475.7c5.5,0,9.9,4.4,9.9,9.9c0,5.5-4.4,9.9-9.9,9.9c-5.5,0-9.9-4.4-9.9-9.9
			C845.9,480.2,850.3,475.7,855.8,475.7z"/>
		<path class="st1" d="M855.8,413.1c5.5,0,9.9,4.4,9.9,9.9c0,5.5-4.4,9.9-9.9,9.9c-5.5,0-9.9-4.4-9.9-9.9
			C845.9,417.5,850.3,413.1,855.8,413.1z"/>
		<path class="st1" d="M855.8,350.4c5.5,0,9.9,4.4,9.9,9.9c0,5.5-4.4,9.9-9.9,9.9c-5.5,0-9.9-4.4-9.9-9.9
			C845.9,354.8,850.3,350.4,855.8,350.4z"/>
		<path class="st1" d="M855.8,287.7c5.5,0,9.9,4.4,9.9,9.9c0,5.5-4.4,9.9-9.9,9.9c-5.5,0-9.9-4.4-9.9-9.9
			C845.9,292.1,850.3,287.7,855.8,287.7z"/>
		<path class="st1" d="M855.8,225c5.5,0,9.9,4.4,9.9,9.9c0,5.5-4.4,9.9-9.9,9.9c-5.5,0-9.9-4.4-9.9-9.9
			C845.9,229.4,850.3,225,855.8,225z"/>
		<path class="st1" d="M855.8,162.3c5.5,0,9.9,4.4,9.9,9.9c0,5.5-4.4,9.9-9.9,9.9c-5.5,0-9.9-4.4-9.9-9.9
			C845.9,166.8,850.3,162.3,855.8,162.3z"/>
		<path class="st1" d="M855.8,99.6c5.5,0,9.9,4.4,9.9,9.9c0,5.5-4.4,9.9-9.9,9.9c-5.5,0-9.9-4.4-9.9-9.9
			C845.9,104.1,850.3,99.6,855.8,99.6z"/>
		<path class="st1" d="M855.8,37c5.5,0,9.9,4.4,9.9,9.9c0,5.5-4.4,9.9-9.9,9.9c-5.5,0-9.9-4.4-9.9-9.9C845.9,41.4,850.3,37,855.8,37
			z"/>
	</g>
	<g>
		<path class="st2" d="M206.6,362.2c0.3,0,0.6,0.1,1,0c-0.6,1.9-0.9,3.7-1.3,5.6c0,1.1-0.1,2.1-0.2,3.2c-0.4,20.7,3.3,41.6,16.6,58
			c10.6,13,24.9,17.5,36.9,27.8c17.8,15.1,15.1,44.9,20.2,65.8c2.8,11.6-9.3,16.8-17.1,11.8c-5.6,2.9-13.3,1.3-16-6.8
			c-2.6-7.7-2.5-15.6-4.7-23.2c-1.1-3.8-2.4-7-3.8-9.7c0.4,7.9,0.2,16.4,0.9,25.6c0.4,4.8,0.9,9.7,1.4,14.6
			c-25.4,3-50.7,3.4-68.2-6.5c-38.9-21.9-90.3-40.2-128.5-9.4c-20.3,30.7-25.5,67.1-4.4,106.2c30.5,56.3,85.7,51.1,133.7,26.8
			c0.1-0.2,0.3-0.4,0.4-0.6c12.3-9.6,23-23.4,26.8-38.6c0.5-0.4,1-0.9,1.5-1.3c11.1-8.9,25.3-12.8,40.1-14.6
			c6.7-0.1,12.4,0.2,16.7,0.4c7.8-5.8,19.9-4.9,22.6,7.5c8.5,38.9,6.1,79.2,15.4,118.2c7.9,33.2,23.2,66.1,46.2,91.8
			c-0.1-72.9-6.3-145.3-15.7-217.7c-0.1-0.6-0.2-1.1-0.3-1.7c17.5-0.3,34.9-0.8,52.4-1.9c34.2-2.1,68.3-6.2,102.5-7.6
			c31.7-1.2,62.9-1.7,93.3-12c5.5-1.9,10-9.2,6-14.7c-12.1-16.5-34.9-21.4-53.7-26.5c-29.2-7.9-57.4-13.1-87.8-13.7
			c-42.1-0.8-84.2,2.2-126.1,5.9c0.3-12.4-1.2-26.6-4.4-39c0.5-17.4,9-19.3,24.3-27.6c10.9-5.9,20.7-14,28.7-23.5
			c30.9-36.9,29.5-89.4-6.7-121.9c-12.7-11.4-45.9-30-74.2-34.2C241.7,288.1,210.9,312.6,206.6,362.2z M208.1,579.3
			c-0.1-0.1-0.2-0.2-0.4-0.3c5.6,0,11.2-0.2,16.8-0.3C217.7,580,210.3,581.1,208.1,579.3z M158.6,560.4c26.2,26.3,12,66.1-14.8,86.2
			c-27.6,11.1-55.8,13.1-80.9-8.1c-1-1-2.1-2-3.1-2.9c-3.2-29.8-9.6-66.3,20-84.3C103.8,536.7,138.7,540.4,158.6,560.4z M44.1,556.1
			c4.6-10.9,12.4-19.8,24.5-25.3C58.4,537.2,50.1,546,44.1,556.1z M242,443.5c-3.6-2.9-7.5-5.8-11.7-9.4c-7.8-6.5-13.8-14.9-18-24.3
			c6.8,13.5,17.9,25.3,31,33.8C242.8,443.6,242.4,443.5,242,443.5z M325.2,434.3c1-1.1,1.8-2.4,2.7-3.5c0.7-0.6,1.4-1.3,2.1-2
			c1.6,0.1,3.1,0,4.6-0.3C331.6,430.6,328.4,432.5,325.2,434.3z M306.2,338.7c13.1,8.1,20.9,23.3,20.1,42.6
			c-0.5,12.8-3.7,23.7-8.8,32.8c1.8,4.4,1,9.9-4.3,13.4c-9.4,6.1-20.3,12-31.6,14.5c-4.4,1.3-9,2.2-13.7,2.7c-0.2-0.5-0.4-1-0.6-1.5
			c-5.7-0.4-11.3-1.9-16.7-4.9c-18-10.2-24.8-30.9-24-50.6c-0.1-0.8-0.3-1.5-0.4-2.3c-1.1-11.8,2.4-22.1,8.7-30.6
			c5.7-11.7,14.2-22,26-27.8C278.3,318.4,295.3,325.4,306.2,338.7z"/>
		<g>
			<path class="st3" d="M190.9,590.6c-0.9-11.6-5.6-21.7-13.8-29.8c-10.6-10.4-25.3-18.4-40.2-19.9c-36.8-3.8-65.9,23.3-68.6,59.2
				c-2.8,37.5,28.3,62.4,64.3,60.2c14.6-0.9,29.1-7.4,40.2-16.7c12.6-10.6,17.5-25.3,18.3-40.9C191.3,598.7,191.2,594.6,190.9,590.6
				z M169.7,627.7c-8.5,9.8-20.5,16.4-33.5,18c-27.6,3.4-52.1-14-53.5-42.5c-2.2-44.2,69.5-70.1,94.5-32.3
				C189,589,183.1,612.4,169.7,627.7z"/>
			<path class="st3" d="M374,855.6c3.6-20.2-1.9-43.8-3.9-64c-3.1-32.6-6.8-65.1-10.3-97.6c-3.1-28.9-6-58.2-9.5-87.4
				c31.3-2.9,62.5-6.6,93.4-9.9c32.5-3.5,65.1-6.8,97.6-10.7c20.1-2.4,44.4-2,63.3-9.8c4.6-1.9,4.2-6.9,1.2-9.4
				c-25.7-43.7-94.6-50.1-139.6-51.5c-42.2-1.3-85.5,1-128.7,5.2c-3-15.8-6.3-31.5-10.3-47c47.6-0.1,76.3-64.2,74.3-105.8
				c-2.4-48.8-45.1-82.9-90.9-90c-49.2-7.7-104.3,16.9-116.1,68.6c-10.1,44.1,12.1,109.3,58.4,124.5c-0.6,1-1,2.2-0.9,3.7
				c1.1,18.5,2.3,37.2,3.7,56.1c-16.6,2.4-33.1,4.8-49.4,7.4c-1.5,0.2-2.5,0.9-3.4,1.6c-24.7-42-93.1-49.9-134.1-30.6
				C20.8,531.5,8.5,590.6,26.4,637c16.7,43.3,59.1,77.8,107.3,69.7c41.1-6.9,97.7-48.5,87.6-95.1c14,0.6,28.1,0.5,42.2,0.3
				c5,41.2,11.8,82.2,21.6,121.4c10.9,43.6,31.8,109.6,80,125.4C368.1,861.1,373.1,860.5,374,855.6z M265.6,473.2
				c-0.5-4.2-3.8-6-7-6c-35.9-26.7-59.9-67.9-50.1-114.2c9.7-45.5,56.2-66.3,99.2-59.9c37.6,5.6,74.3,31.8,78.4,71.9
				c4.4,42.7-21.4,87.2-61.1,101.5c-1.1-0.9-3.1,0-3.1,1.7c0,0.4,0,0.8,0,1.2c-0.1,0.6-0.1,1.2,0,1.8c0.2,16.8,1.3,33.7,2.9,50.6
				c-17.8,1.9-35.6,4-53.3,6.4C269.8,509.8,267.9,491.5,265.6,473.2z M218,607.1c-0.6,0-1.2,0.1-1.8,0.3c-0.4,0.1-0.8,0.1-1.2,0.2
				c-1.6,0.3-2.1,2.5-1,3.4c-5.5,41.9-43.6,76.5-86.2,81.3c-40.1,4.5-73.5-25.8-86.9-61.4c-15.4-40.7-5-90.6,37.5-109.7
				c43.1-19.4,88.5-4.7,122.2,24.7c0.6,3.1,3.1,5.9,7.3,5.6c77.6-7,155.2-20,233.1-23.3c56-2.4,112.5,0.4,156.1,37.3
				c-51.2,1.4-104.3,12.7-155,18.6C368.4,592.6,290.5,592.4,218,607.1z M292.4,705.9c-5.4-31.2-9.2-62.8-12.5-94.4
				c18.6-0.7,37.3-2,55.9-3.6c4.2,29.2,8.5,58.4,11.4,87.2c5,50.8,5.2,105.1,14.8,155.4C316.7,815.8,301.9,761.1,292.4,705.9z"/>
			<path class="st3" d="M348.1,419.3c6.8-12.9,10-28.4,7.8-42.9c-5.5-35.7-36.4-60.7-72.5-50c-34.5,10.2-54.8,44.4-43.3,79.6
				c4.7,14.3,15.6,26.9,28,35.1c9.7,6.4,20.6,8.8,32.1,7.2c4-0.6,8-1.3,11.8-2.4C327.1,441.8,340.4,433.8,348.1,419.3z M278.1,438.9
				c-42.3-16.3-32.2-91.9,11.5-99.2c28.2-4.7,50.3,15.6,52.9,43.3c1.2,13-2.8,26.1-10.5,36.5C319.8,435.9,298.2,446.7,278.1,438.9z"
				/>
			<path class="st3" d="M312.1,569.6c-0.1,10.7,10.1,16.5,19.7,13.4c0.2-0.1,0.4-0.1,0.6-0.2c5.2-1.7,8.5-7.7,8.5-12.8
				c0.1-6.1-3.4-10.1-8.4-13c-0.2-0.1-0.4-0.2-0.6-0.3c-4.3-2.5-10.6-1-14.3,1.8C314,561.2,312.2,565.2,312.1,569.6z"/>
		</g>
		<g>
			<path class="st2" d="M688.2,124.4c-15,6.6-27.6,15.4-43.9,19.1c-12.6,2.9-25,4.4-37.3,8.5c-7.4,2.5-13.5,9.1-11.7,17.9
				c5.2,24.8,3.2,49.3,0.7,74.3c-0.2,1.8-0.4,3.7-0.7,5.6c30.8,11.5,59.4,31.4,86.3,51.5c50.3-60.3,149.8-75.4,225.3-73.8
				c-0.2-0.2-0.3-0.5-0.5-0.8c0.3-1,0.5-2,0.6-3.1c1.1-8.5-1-15.1-5.2-20.2c-1.7,0.6-3.6,0.9-5.8,0.5c-23.6-4.3-47.4-11.2-69.5-21.4
				c-4.6-0.1-9.2-0.2-13.6,0.3c-4.9-2.9-9.8-5.8-14.8-8.9c-24.4-15.1-50.2-27.7-73.6-44.5C710.4,119.1,704.7,117.2,688.2,124.4z
				 M670.6,207.1c7.8-3.3,17-1.7,22.4,5.6c6.5,8.8,5.3,23.4-2.8,30.8c-5.6,5.2-13.4,6.8-20.5,4.9c-5.7,1.2-10.2-2.5-12.2-7.8
				c-0.2-0.5-0.3-0.9-0.4-1.4c-5.3-7.9-5.6-18.8-0.9-27.4c2.8-5.1,9.3-7.2,14.4-4.9C670.5,207,670.5,207.1,670.6,207.1z"/>
			<g>
				<path class="st3" d="M723,106c-4.2-3.1-8.4-7.1-13.5-8.4c-2.6-0.7-5.5-1-8.1-0.1c-2.1,0.7-3.4,2.6-5.1,3.9
					c-2.3,1.7-4.8,3.1-7.2,4.6c-4.7,2.9-9.5,5.6-14.4,8.3c-9.9,5.3-20,10.1-30.2,14.7c-12.2,5.5-27.8,9.8-42.2,16.4
					c-0.7-4.2-1.6-8.4-2.8-12.4c-0.8-2.8-5.4-2.9-7.7-3.4c-3.4-0.7-6.8-1.3-10.2-1.8c-6.8-0.9-13.7-1.1-20.5-0.2
					c-6.6,0.9-13.1,2.2-19.3,4.9c-2.8,1.2-7.3,2.7-8.8,5.7c-2,3.9-2.2,8.9-3.1,13.1c-1.1,5.3-1.8,10.7-2.3,16
					c-1,10.5-1.3,21.1-1.6,31.6c-0.5,18.6-0.5,37.3,0,55.9c0.3,10.7,0.6,21.3,1.6,32c0.5,5.4,1.3,10.7,2.4,16
					c0.9,4.2,0.9,8.4,3.3,12.1c1.9,2.9,4.7,5,7.7,6.5c6.3,3.1,13.4,3.9,20.2,4.8c12.3,1.6,23.7,0.4,34.9-4.9c0.8,0,1.6-0.5,1.7-1.4
					c0.5-3.2,1-6.4,1.4-9.6c11.3,8,31.7,13,45.3,19.2c18.1,8.3,35.9,17.4,52.7,28.3c4.4,2.9,7.8,4.5,13,2.9
					c5.1-1.6,9.4-5.7,13.6-8.9c16.5-12.5,31.7-25.6,49.4-36.5c13.6-8.4,27.7-16.1,42.1-23c14.6-7.1,29.6-13.5,44.6-19.5
					c9.8-3.9,19.5-7.9,29.3-11.5c6.3-2.3,16.1-2.6,20.3-8.6c4.1-5.8,1.7-14.6,1.9-21.2c0.2-5.7,0.3-11.4-0.4-17.1
					c-0.4-3.2,0.6-7.5-1-10.5c-1.4-2.5-4.7-3-7.3-3.4c-16.2-2.8-31.3-9.9-46.5-16c-28.7-11.6-56.8-24.8-83.2-41.1
					C755.3,132.1,739.8,118.7,723,106z M690.9,238c-3.3,5.8-10.7,9.3-16.9,10.4c-11.4,1.9-21.2-6.6-20-18.6
					c0.9-9.2,7.6-18.4,16.6-20.3c12.1-2.6,19,6.6,22.2,17C693.2,230.5,692.9,234.6,690.9,238z M591.9,135.7
					c-7.6,28.2-2.8,61.8-2.5,90.8c0.3,30.4-0.3,61.2,4.5,91.2c-10,2-21.7,0.3-31.4-1.8c-8-1.7-15.7-5.8-23.7-6.8
					c0-2.9,0-5.8-0.1-8.8c-0.5-33.8,0.4-67.6-0.5-101.4c-0.5-18.1,0.7-36.2,0.6-54.3c7.6-3,15.7-5.1,23.7-6.8
					C571.6,135.9,582.4,134.3,591.9,135.7z M700,109c17.6,24.4,55.8,45.1,79.7,58.3c38.5,21.2,78.1,33.4,120.7,40.9
					c-1.5,6.1-1.7,12.2-1.6,18.8c-33.4-5.4-68.4-3.1-102.1-3.4c-31.3-0.3-63.8-2.9-94.9,2.1c0.6-14.5-15.7-27.7-30-26.5
					c-15.3,1.2-27.4,16.3-28.4,31.6c-1.3,19.4,15.6,32.2,33.4,28.6c9-1.9,18.5-7.3,22.9-15.9c1.8-3.6,2.4-7.1,2.2-10.6
					c31.1,4.9,63.6,2.4,94.9,2.1c33.8-0.3,68.7,2,102.2-3.4c0.1,5.1-0.7,13.1,1.3,18.8c-42.5,7.5-82,19.8-120.5,40.9
					c-24.2,13.2-62.1,33.8-79.7,58.3c-16-14.8-31.4-23.6-51.1-32.7c-13.2-6.1-31-12.9-48.7-16.6c2.9-26,2.1-47.4,2.4-73.5
					c0.2-22.4,3.2-47.6,1-71c14.3,0.7,30.8-5.1,42.7-10.6C666.1,135.7,684,123.8,700,109z"/>
				<linearGradient id="SVGID_1_" gradientUnits="userSpaceOnUse" x1="793.207" y1="229.1645" x2="1006.672" y2="229.1645">
					<stop  offset="0" style="stop-color:#23185F"/>
					<stop  offset="1" style="stop-color:#32058C"/>
				</linearGradient>
				<path class="st4" d="M820.7,28.8c7,2.9,13.1,9.4,13.5,17.5c0,0.6,0,1.2,0,1.8c0,0.1,0,0.3-0.1,0.4c41.9,8.8,84.7,27.8,112,61.9
					c15,18.8,30.1,48.4,37.3,78.3c-0.6-19.3,0.1-38.8,0.1-58c0-20.7-1-41.6,0.5-62.2c-3.9-0.5-7.4-2.7-9.2-7
					c-1.3-3.1-1.3-6.6-0.6-9.8c1-4.6,2.5-9.1,6.6-11.7c3.8-2.4,8.8-2.1,12.8-0.4c5.1,2.1,9.5,6.8,9.8,12.7c0,0.4,0,0.9,0,1.3
					c-0.3,6.9-5.9,12.2-12.2,14.1c1.6,20.9,0.5,42,0.5,62.9c0,26.6,1.4,53.7-1.3,80.2c8.3,3.6,15.7,11.4,16.1,21.1
					c0,0.7,0,1.5,0,2.2c-0.4,9.8-7.2,17.5-15.6,21.7c2,24.8,0.8,50.1,0.8,75c0,20.9,1.1,42-0.5,62.9c6.3,2,11.8,7.2,12.2,14.1
					c0,0.4,0,0.9,0,1.3c-0.3,5.9-4.7,10.6-9.8,12.7c-4,1.7-9,2-12.8-0.4c-4.1-2.6-5.6-7.1-6.6-11.7c-0.7-3.2-0.7-6.7,0.6-9.8
					c1.8-4.3,5.2-6.4,9.2-7c-1.5-20.6-0.5-41.5-0.5-62.2c0-21-0.9-42.4,0.1-63.5c-7.1,30.2-22.3,60.2-37.5,79.2
					c-27.4,34.2-70.5,53.2-112.7,62c0.2,6.3-0.3,12.6-4.8,17.4c-4.3,4.6-11,6-17,5.2c-7.5-1-15-5.6-17.4-13.3
					c-0.2-0.6-0.3-1.2-0.4-1.7c-3.9-18.9,23.5-36.9,35.5-21c1.4,1.9,2.4,4,3.1,6.2c41.3-16.1,82.5-28.7,109.9-68.9
					c15.1-22.1,24.1-47.6,28.8-74c-5.4-1.5-10-4.9-12.5-11c-2.2-5.2-2.2-11-1-16.4c1.7-7.7,4.1-15.3,11-19.6
					c1.3-0.8,2.7-1.4,4.1-1.8c-4-30.3-13.4-59.9-30.5-85.1c-27.5-40.5-68.8-52.9-110.2-69c-7.1,14.1-30.9,19.4-37.5,3.5
					c-1.8-4.3-1.8-9.1-0.8-13.5c1.4-6.3,3.4-12.6,9.1-16.1C808.3,26.1,815.1,26.4,820.7,28.8z"/>
			</g>
		</g>
	</g>
</g>
</svg>
